<svg xmlns="http://www.w3.org/2000/svg" width="30" height="30" viewBox="0 0 40 40"><path d="M32.66,19.37A4.12,4.12,0,0,0,29.57,19a4,4,0,0,0-1.68-2.63l-.34-.26-.27.33A3.63,3.63,0,0,0,26.61,19a3.59,3.59,0,0,0,.61,1.68c-.27.14-.61.27-.88.41a5.67,5.67,0,0,1-1.81.26H7.11L7,21.73a7.58,7.58,0,0,0,.61,3.83l.26.47v.07c1.62,2.69,4.51,3.9,7.67,3.9,6,0,11-2.62,13.38-8.27,1.55.07,3.1-.34,3.84-1.82l.2-.33Zm-20.44,7A1.41,1.41,0,0,1,10.81,25a1.41,1.41,0,0,1,2.82,0A1.41,1.41,0,0,1,12.22,26.37ZM20.89,18H18.27v2.62h2.62Zm0-3.29H18.27v2.62h2.62Zm0-3.37H18.27v2.63h2.62ZM24.12,18H21.5v2.62h2.62Zm-9.75,0H11.75v2.62h2.62V18Zm3.3,0H15v2.62h2.63Zm-6.53,0H8.52v2.62h2.62V18Zm6.53-3.29H15v2.62h2.63Zm-3.3,0H11.75v2.62h2.62V14.67Z" fill="#a7bfe8" class="color000000 svgShape"></path></svg>
