<svg width="3840" height="2203" viewBox="0 0 3840 2203" fill="none" xmlns="http://www.w3.org/2000/svg">
<rect width="3840" height="2203" fill="url(#paint0_linear_47_264)"/>
<path d="M671 1460.5C671 1306.69 795.689 1182 949.5 1182H2889.5C3043.31 1182 3168 1306.69 3168 1460.5V1460.5C3168 1614.31 3043.31 1739 2889.5 1739H949.5C795.689 1739 671 1614.31 671 1460.5V1460.5Z" fill="white"/>
<path d="M848.5 1542.8C844.1 1542.8 840.6 1541.5 838 1538.9C835.6 1536.3 834.4 1533.4 834.4 1530.2C834.4 1527 834.8 1523.7 835.6 1520.3L872.8 1350.2C873.6 1346.6 875.3 1343.8 877.9 1341.8C880.5 1339.6 883.7 1338.5 887.5 1338.5C894.5 1338.5 899.1 1341.9 901.3 1348.7L943.6 1481.6L991.6 1348.1C994 1341.7 999 1338.5 1006.6 1338.5C1010 1338.5 1012.8 1339.6 1015 1341.8C1017.4 1343.8 1019 1346.6 1019.8 1350.2L1057.9 1520C1058.9 1524.6 1059.4 1527.6 1059.4 1529C1059.4 1532.8 1058 1536.1 1055.2 1538.9C1052.4 1541.5 1048.9 1542.8 1044.7 1542.8C1040.7 1542.8 1037.5 1541.8 1035.1 1539.8C1032.7 1537.6 1031.1 1534.8 1030.3 1531.4L1002.7 1406L956.5 1533.2C955.5 1536.2 953.7 1538.6 951.1 1540.4C948.5 1542 945.6 1542.8 942.4 1542.8C935.4 1542.8 930.8 1539.4 928.6 1532.6L889.6 1410.5L863.2 1531.1C862.4 1534.7 860.7 1537.6 858.1 1539.8C855.5 1541.8 852.3 1542.8 848.5 1542.8ZM1104.9 1380.5C1101.1 1380.5 1097.7 1379 1094.7 1376C1091.9 1373 1090.6 1369.6 1090.8 1365.8L1091.1 1354.7C1091.3 1350.9 1092.8 1347.6 1095.6 1344.8C1098.4 1342 1101.7 1340.6 1105.5 1340.6C1109.3 1340.6 1112.6 1342.1 1115.4 1345.1C1118.4 1348.1 1119.8 1351.4 1119.6 1355L1119.3 1366.4C1119.1 1370.4 1117.6 1373.8 1114.8 1376.6C1112.2 1379.2 1108.9 1380.5 1104.9 1380.5ZM1103.4 1542.8C1099.4 1542.8 1095.9 1541.4 1092.9 1538.6C1090.1 1535.6 1088.7 1532.1 1088.7 1528.1L1090.2 1408.7C1090.2 1404.7 1091.6 1401.3 1094.4 1398.5C1097.4 1395.5 1100.9 1394 1104.9 1394C1109.1 1394 1112.6 1395.5 1115.4 1398.5C1118.2 1401.3 1119.6 1404.7 1119.6 1408.7L1118.1 1528.1C1118.1 1532.1 1116.6 1535.6 1113.6 1538.6C1110.8 1541.4 1107.4 1542.8 1103.4 1542.8ZM1212.95 1593.2C1201.35 1593.2 1189.55 1591.8 1177.55 1589C1174.35 1588.2 1171.65 1586.5 1169.45 1583.9C1167.45 1581.3 1166.45 1578.3 1166.45 1574.9C1166.45 1570.9 1167.85 1567.5 1170.65 1564.7C1173.65 1561.9 1177.05 1560.5 1180.85 1560.5C1183.25 1560.5 1186.45 1561 1190.45 1562C1191.25 1562.2 1193.75 1562.6 1197.95 1563.2C1202.15 1564 1207.05 1564.4 1212.65 1564.4C1233.25 1564.4 1244.35 1554.1 1245.95 1533.5L1246.55 1526.3C1243.15 1530.9 1238.65 1534.4 1233.05 1536.8C1227.45 1539 1221.45 1540.1 1215.05 1540.1C1204.45 1540.1 1194.45 1537.5 1185.05 1532.3C1175.85 1526.9 1168.45 1519.2 1162.85 1509.2C1157.25 1499 1154.45 1487.1 1154.45 1473.5C1154.45 1459.3 1157.55 1446 1163.75 1433.6C1170.15 1421.2 1178.75 1411.3 1189.55 1403.9C1200.55 1396.5 1212.65 1392.8 1225.85 1392.8C1233.25 1392.8 1241.55 1394.6 1250.75 1398.2C1252.35 1392.6 1256.95 1389.8 1264.55 1389.8C1268.75 1389.8 1272.15 1391 1274.75 1393.4C1277.55 1395.6 1278.85 1399.3 1278.65 1404.5L1275.65 1531.1C1275.25 1551.7 1269.35 1567.2 1257.95 1577.6C1246.55 1588 1231.55 1593.2 1212.95 1593.2ZM1213.25 1511.9C1224.25 1511.9 1232.85 1508 1239.05 1500.2C1245.25 1492.2 1248.35 1479.9 1248.35 1463.3V1427C1245.55 1425.4 1242.15 1424.1 1238.15 1423.1C1234.35 1422.1 1230.65 1421.6 1227.05 1421.6C1218.85 1421.6 1211.25 1423.8 1204.25 1428.2C1197.45 1432.4 1191.95 1438.3 1187.75 1445.9C1183.75 1453.5 1181.75 1462 1181.75 1471.4C1181.75 1483.6 1184.75 1493.4 1190.75 1500.8C1196.95 1508.2 1204.45 1511.9 1213.25 1511.9ZM1340.7 1542.8C1336.9 1542.8 1333.5 1541.4 1330.5 1538.6C1327.5 1535.8 1326 1532.6 1326 1529V1407.5C1326 1403.5 1327.4 1400.1 1330.2 1397.3C1333.2 1394.5 1336.7 1393.1 1340.7 1393.1C1344.7 1393.1 1348.1 1394.5 1350.9 1397.3C1353.9 1400.1 1355.4 1403.5 1355.4 1407.5V1416.5C1365.2 1400.5 1378.6 1392.5 1395.6 1392.5C1405.8 1392.5 1413.1 1395.3 1417.5 1400.9C1422.1 1406.5 1424.4 1413.2 1424.4 1421V1430C1424.4 1434 1423 1437.4 1420.2 1440.2C1417.6 1442.8 1414.3 1444.1 1410.3 1444.1C1405.5 1444.1 1401.9 1442.7 1399.5 1439.9C1397.3 1437.1 1396.2 1433.7 1396.2 1429.7V1425.8C1396.2 1422.6 1394 1421 1389.6 1421C1386 1421 1381.8 1422.8 1377 1426.4C1372.4 1430 1368.6 1433.8 1365.6 1437.8C1361.4 1443 1358.6 1448.2 1357.2 1453.4C1356 1458.6 1355.4 1464.8 1355.4 1472L1355.1 1529C1355.1 1532.6 1353.6 1535.8 1350.6 1538.6C1347.6 1541.4 1344.3 1542.8 1340.7 1542.8ZM1533.92 1545.8C1529.92 1545.8 1526.62 1544.7 1524.02 1542.5C1521.62 1540.3 1520.42 1537.4 1520.42 1533.8V1529.6C1512.22 1538.4 1500.82 1542.8 1486.22 1542.8C1475.22 1542.8 1465.32 1540.1 1456.52 1534.7C1447.72 1529.3 1440.82 1521.7 1435.82 1511.9C1430.82 1501.9 1428.32 1490.6 1428.32 1478C1428.32 1464 1431.32 1450.5 1437.32 1437.5C1443.32 1424.3 1451.72 1413.6 1462.52 1405.4C1473.52 1397.2 1486.12 1393.1 1500.32 1393.1C1509.52 1393.1 1517.82 1394.4 1525.22 1397C1532.62 1399.4 1540.32 1402.4 1548.32 1406V1530.8C1548.32 1534.8 1546.92 1538.3 1544.12 1541.3C1541.32 1544.3 1537.92 1545.8 1533.92 1545.8ZM1488.32 1514.9C1494.12 1514.9 1499.72 1513.7 1505.12 1511.3C1510.72 1508.9 1515.32 1506 1518.92 1502.6L1519.82 1424.3C1514.02 1421.9 1507.72 1420.7 1500.92 1420.7C1492.32 1420.7 1484.72 1423.4 1478.12 1428.8C1471.52 1434 1466.42 1441 1462.82 1449.8C1459.22 1458.4 1457.42 1467.6 1457.42 1477.4C1457.42 1489.6 1460.12 1498.9 1465.52 1505.3C1470.92 1511.7 1478.52 1514.9 1488.32 1514.9ZM1616.36 1543.1C1612.56 1543.1 1609.16 1541.7 1606.16 1538.9C1603.36 1536.1 1601.96 1532.8 1601.96 1529V1421.9H1578.26C1574.26 1421.9 1570.86 1420.5 1568.06 1417.7C1565.26 1414.7 1563.86 1411.3 1563.86 1407.5C1563.86 1403.1 1565.36 1399.6 1568.36 1397C1571.36 1394.2 1574.86 1392.8 1578.86 1392.8H1601.96V1360.7C1601.96 1356.9 1603.36 1353.5 1606.16 1350.5C1608.96 1347.5 1612.36 1346 1616.36 1346C1620.56 1346 1623.96 1347.5 1626.56 1350.5C1629.36 1353.3 1630.76 1356.7 1630.76 1360.7V1392.8H1656.26C1660.26 1392.8 1663.66 1394.2 1666.46 1397C1669.26 1399.8 1670.66 1403.3 1670.66 1407.5C1670.66 1411.3 1669.26 1414.7 1666.46 1417.7C1663.66 1420.5 1660.26 1421.9 1656.26 1421.9H1630.76V1529C1630.76 1532.8 1629.36 1536.1 1626.56 1538.9C1623.76 1541.7 1620.36 1543.1 1616.36 1543.1ZM1704.9 1380.5C1701.1 1380.5 1697.7 1379 1694.7 1376C1691.9 1373 1690.6 1369.6 1690.8 1365.8L1691.1 1354.7C1691.3 1350.9 1692.8 1347.6 1695.6 1344.8C1698.4 1342 1701.7 1340.6 1705.5 1340.6C1709.3 1340.6 1712.6 1342.1 1715.4 1345.1C1718.4 1348.1 1719.8 1351.4 1719.6 1355L1719.3 1366.4C1719.1 1370.4 1717.6 1373.8 1714.8 1376.6C1712.2 1379.2 1708.9 1380.5 1704.9 1380.5ZM1703.4 1542.8C1699.4 1542.8 1695.9 1541.4 1692.9 1538.6C1690.1 1535.6 1688.7 1532.1 1688.7 1528.1L1690.2 1408.7C1690.2 1404.7 1691.6 1401.3 1694.4 1398.5C1697.4 1395.5 1700.9 1394 1704.9 1394C1709.1 1394 1712.6 1395.5 1715.4 1398.5C1718.2 1401.3 1719.6 1404.7 1719.6 1408.7L1718.1 1528.1C1718.1 1532.1 1716.6 1535.6 1713.6 1538.6C1710.8 1541.4 1707.4 1542.8 1703.4 1542.8ZM1813.85 1542.8C1802.45 1542.8 1791.95 1539.7 1782.35 1533.5C1772.95 1527.3 1765.55 1518.9 1760.15 1508.3C1754.75 1497.5 1752.05 1485.8 1752.05 1473.2C1752.05 1459 1755.25 1445.8 1761.65 1433.6C1768.05 1421.2 1776.65 1411.4 1787.45 1404.2C1798.25 1396.8 1809.85 1393.1 1822.25 1393.1C1833.65 1393.1 1844.05 1396.3 1853.45 1402.7C1863.05 1409.1 1870.55 1417.6 1875.95 1428.2C1881.55 1438.8 1884.35 1450.2 1884.35 1462.4C1884.35 1476.8 1881.15 1490.2 1874.75 1502.6C1868.35 1514.8 1859.65 1524.6 1848.65 1532C1837.85 1539.2 1826.25 1542.8 1813.85 1542.8ZM1813.85 1515.8C1820.85 1515.8 1827.55 1513.4 1833.95 1508.6C1840.35 1503.8 1845.45 1497.4 1849.25 1489.4C1853.05 1481.4 1854.95 1472.9 1854.95 1463.9C1854.95 1456.3 1853.45 1449.2 1850.45 1442.6C1847.45 1435.8 1843.35 1430.4 1838.15 1426.4C1832.95 1422.2 1827.25 1420.1 1821.05 1420.1C1814.05 1420.1 1807.45 1422.6 1801.25 1427.6C1795.25 1432.4 1790.45 1438.9 1786.85 1447.1C1783.25 1455.1 1781.45 1463.7 1781.45 1472.9C1781.45 1481.9 1782.95 1489.6 1785.95 1496C1789.15 1502.4 1793.15 1507.3 1797.95 1510.7C1802.95 1514.1 1808.25 1515.8 1813.85 1515.8ZM1931.03 1542.8C1927.23 1542.8 1923.83 1541.4 1920.83 1538.6C1918.03 1535.8 1916.63 1532.6 1916.63 1529V1407.2C1916.63 1403.2 1918.13 1399.8 1921.13 1397C1924.13 1394.2 1927.63 1392.8 1931.63 1392.8C1935.43 1392.8 1938.63 1394.2 1941.23 1397C1944.03 1399.8 1945.43 1403.2 1945.43 1407.2V1430C1951.03 1418 1958.13 1408.9 1966.73 1402.7C1975.33 1396.3 1984.73 1393.1 1994.93 1393.1C2006.13 1393.1 2015.03 1395.7 2021.63 1400.9C2028.23 1406.1 2033.03 1414.7 2036.03 1426.7C2039.03 1438.5 2040.53 1454.9 2040.53 1475.9L2040.23 1528.4C2040.23 1532.2 2038.93 1535.6 2036.33 1538.6C2033.73 1541.4 2030.43 1542.8 2026.43 1542.8C2022.63 1542.8 2019.23 1541.4 2016.23 1538.6C2013.43 1535.6 2012.03 1532.3 2012.03 1528.7V1478.9C2012.03 1463.3 2011.33 1451.3 2009.93 1442.9C2008.53 1434.5 2006.43 1428.8 2003.63 1425.8C2000.83 1422.6 1997.03 1421 1992.23 1421C1986.23 1421 1980.23 1423.6 1974.23 1428.8C1968.23 1433.8 1962.63 1441 1957.43 1450.4C1952.83 1458.6 1949.63 1466.6 1947.83 1474.4C1946.03 1482.2 1945.13 1491.6 1945.13 1502.6V1527.8C1945.13 1532.2 1943.83 1535.8 1941.23 1538.6C1938.83 1541.4 1935.43 1542.8 1931.03 1542.8ZM2212.55 1543.1C2208.75 1543.1 2205.35 1541.7 2202.35 1538.9C2199.55 1536.1 2198.15 1532.8 2198.15 1529V1421.9H2174.45C2170.45 1421.9 2167.05 1420.5 2164.25 1417.7C2161.45 1414.7 2160.05 1411.3 2160.05 1407.5C2160.05 1403.1 2161.55 1399.6 2164.55 1397C2167.55 1394.2 2171.05 1392.8 2175.05 1392.8H2198.15V1360.7C2198.15 1356.9 2199.55 1353.5 2202.35 1350.5C2205.15 1347.5 2208.55 1346 2212.55 1346C2216.75 1346 2220.15 1347.5 2222.75 1350.5C2225.55 1353.3 2226.95 1356.7 2226.95 1360.7V1392.8H2252.45C2256.45 1392.8 2259.85 1394.2 2262.65 1397C2265.45 1399.8 2266.85 1403.3 2266.85 1407.5C2266.85 1411.3 2265.45 1414.7 2262.65 1417.7C2259.85 1420.5 2256.45 1421.9 2252.45 1421.9H2226.95V1529C2226.95 1532.8 2225.55 1536.1 2222.75 1538.9C2219.95 1541.7 2216.55 1543.1 2212.55 1543.1ZM2329.77 1542.8C2318.37 1542.8 2307.87 1539.7 2298.27 1533.5C2288.87 1527.3 2281.47 1518.9 2276.07 1508.3C2270.67 1497.5 2267.97 1485.8 2267.97 1473.2C2267.97 1459 2271.17 1445.8 2277.57 1433.6C2283.97 1421.2 2292.57 1411.4 2303.37 1404.2C2314.17 1396.8 2325.77 1393.1 2338.17 1393.1C2349.57 1393.1 2359.97 1396.3 2369.37 1402.7C2378.97 1409.1 2386.47 1417.6 2391.87 1428.2C2397.47 1438.8 2400.27 1450.2 2400.27 1462.4C2400.27 1476.8 2397.07 1490.2 2390.67 1502.6C2384.27 1514.8 2375.57 1524.6 2364.57 1532C2353.77 1539.2 2342.17 1542.8 2329.77 1542.8ZM2329.77 1515.8C2336.77 1515.8 2343.47 1513.4 2349.87 1508.6C2356.27 1503.8 2361.37 1497.4 2365.17 1489.4C2368.97 1481.4 2370.87 1472.9 2370.87 1463.9C2370.87 1456.3 2369.37 1449.2 2366.37 1442.6C2363.37 1435.8 2359.27 1430.4 2354.07 1426.4C2348.87 1422.2 2343.17 1420.1 2336.97 1420.1C2329.97 1420.1 2323.37 1422.6 2317.17 1427.6C2311.17 1432.4 2306.37 1438.9 2302.77 1447.1C2299.17 1455.1 2297.37 1463.7 2297.37 1472.9C2297.37 1481.9 2298.87 1489.6 2301.87 1496C2305.07 1502.4 2309.07 1507.3 2313.87 1510.7C2318.87 1514.1 2324.17 1515.8 2329.77 1515.8ZM2580.88 1543.1C2577.48 1543.1 2574.78 1542.3 2572.78 1540.7C2570.78 1539.1 2569.08 1536.6 2567.68 1533.2L2518.18 1412.6C2517.58 1410.8 2517.28 1408.8 2517.28 1406.6C2517.28 1403 2518.68 1399.9 2521.48 1397.3C2524.48 1394.5 2527.98 1393.1 2531.98 1393.1C2538.38 1393.1 2542.88 1396.3 2545.48 1402.7L2580.88 1492.1L2616.58 1401.8C2617.58 1399 2619.28 1396.8 2621.68 1395.2C2624.28 1393.6 2627.08 1392.8 2630.08 1392.8C2634.28 1392.8 2637.68 1394.2 2640.28 1397C2643.08 1399.8 2644.48 1403.1 2644.48 1406.9C2644.48 1408.5 2643.98 1410.6 2642.98 1413.2L2594.38 1534.1C2593.18 1537.1 2591.48 1539.4 2589.28 1541C2587.28 1542.4 2584.48 1543.1 2580.88 1543.1ZM2660.92 1526.9C2660.92 1510.7 2663.42 1497.1 2668.42 1486.1C2673.42 1474.9 2679.62 1465.9 2687.02 1459.1C2694.42 1452.1 2703.52 1445.2 2714.32 1438.4C2723.92 1432 2731.02 1427 2735.62 1423.4C2740.42 1419.8 2744.32 1415.8 2747.32 1411.4C2750.52 1406.8 2752.12 1401.6 2752.12 1395.8C2752.12 1388.8 2749.32 1383.1 2743.72 1378.7C2738.12 1374.1 2731.12 1371.8 2722.72 1371.8C2714.52 1371.8 2707.22 1373.9 2700.82 1378.1C2694.62 1382.3 2689.92 1386.3 2686.72 1390.1C2684.72 1392.3 2682.82 1394 2681.02 1395.2C2679.42 1396.2 2677.12 1396.7 2674.12 1396.7C2669.92 1396.7 2666.42 1395.2 2663.62 1392.2C2661.02 1389.2 2659.72 1385.8 2659.72 1382C2659.72 1379.6 2660.32 1377.3 2661.52 1375.1C2662.92 1372.9 2665.52 1370 2669.32 1366.4C2675.92 1360 2683.72 1354.5 2692.72 1349.9C2701.72 1345.3 2711.72 1343 2722.72 1343C2733.92 1343 2743.92 1345.4 2752.72 1350.2C2761.52 1354.8 2768.42 1361.2 2773.42 1369.4C2778.42 1377.4 2780.92 1386.2 2780.92 1395.8C2780.92 1406.2 2778.62 1415.4 2774.02 1423.4C2769.42 1431.2 2763.82 1437.9 2757.22 1443.5C2750.82 1448.9 2742.52 1454.8 2732.32 1461.2C2720.32 1469 2710.82 1476.6 2703.82 1484C2696.82 1491.4 2692.42 1500.9 2690.62 1512.5H2768.92C2772.72 1512.5 2776.02 1513.9 2778.82 1516.7C2781.82 1519.5 2783.32 1522.9 2783.32 1526.9C2783.32 1530.7 2781.82 1534 2778.82 1536.8C2776.02 1539.6 2772.72 1541 2768.92 1541H2660.92V1526.9ZM2819.94 1542.8C2815.34 1542.8 2811.54 1541.2 2808.54 1538C2805.74 1534.6 2804.34 1530.5 2804.34 1525.7C2804.34 1520.7 2806.14 1516.3 2809.74 1512.5C2813.34 1508.5 2817.44 1506.5 2822.04 1506.5C2826.44 1506.5 2830.14 1508.2 2833.14 1511.6C2836.14 1514.8 2837.64 1518.7 2837.64 1523.3C2837.64 1528.7 2835.84 1533.3 2832.24 1537.1C2828.64 1540.9 2824.54 1542.8 2819.94 1542.8ZM2932.34 1542.8C2919.34 1542.8 2907.54 1538.5 2896.94 1529.9C2886.54 1521.1 2878.34 1509.4 2872.34 1494.8C2866.54 1480.2 2863.64 1464.5 2863.64 1447.7C2863.64 1429.5 2866.94 1412.4 2873.54 1396.4C2880.34 1380.2 2889.44 1367.3 2900.84 1357.7C2912.44 1347.9 2925.04 1343 2938.64 1343C2951.64 1343 2963.34 1347.4 2973.74 1356.2C2984.14 1364.8 2992.24 1376.4 2998.04 1391C3004.04 1405.6 3007.04 1421.4 3007.04 1438.4C3007.04 1456.8 3003.64 1474 2996.84 1490C2990.24 1506 2981.14 1518.8 2969.54 1528.4C2958.14 1538 2945.74 1542.8 2932.34 1542.8ZM2932.34 1514C2940.54 1514 2948.14 1510.6 2955.14 1503.8C2962.34 1497 2968.04 1487.9 2972.24 1476.5C2976.64 1464.9 2978.84 1452.4 2978.84 1439C2978.84 1427.2 2977.04 1416.2 2973.44 1406C2970.04 1395.6 2965.24 1387.3 2959.04 1381.1C2952.84 1374.9 2946.04 1371.8 2938.64 1371.8C2930.44 1371.8 2922.74 1375.2 2915.54 1382C2908.34 1388.8 2902.64 1398 2898.44 1409.6C2894.24 1421.2 2892.14 1433.7 2892.14 1447.1C2892.14 1458.7 2893.84 1469.7 2897.24 1480.1C2900.64 1490.3 2905.44 1498.5 2911.64 1504.7C2917.84 1510.9 2924.74 1514 2932.34 1514Z" fill="#1E222A"/>
<g filter="url(#filter0_d_47_264)">
<rect x="1588" y="385" width="624" height="615" rx="307.5" fill="#1E222A"/>
</g>
<path d="M1773.08 656.9V760.967C1773.08 767.099 1775.51 772.98 1779.84 777.316C1784.16 781.652 1790.03 784.088 1796.15 784.088H1819.74C1820.45 791.911 1821.87 799.651 1824.01 807.209H1796.15C1783.91 807.209 1772.17 802.337 1763.52 793.665C1754.86 784.993 1750 773.231 1750 760.967V622.242C1750 609.978 1754.86 598.216 1763.52 589.544C1772.17 580.872 1783.91 576 1796.15 576H1836.65C1839.28 575.999 1841.83 576.897 1843.88 578.543L1869.45 599.121H1980.72C1992.96 599.121 2004.7 603.993 2013.36 612.665C2022.01 621.337 2026.88 633.099 2026.88 645.363V674.379C2019.76 668.499 2012.02 663.413 2003.8 659.212V645.363C2003.8 639.231 2001.37 633.35 1997.04 629.014C1992.71 624.678 1986.84 622.242 1980.72 622.242H1870.81L1845.54 652.761C1844.45 654.066 1843.1 655.116 1841.56 655.835C1840.02 656.554 1838.35 656.926 1836.65 656.923L1773.08 656.9ZM1832.59 599.121H1796.15C1790.03 599.121 1784.16 601.557 1779.84 605.893C1775.51 610.229 1773.08 616.11 1773.08 622.242V633.779H1831.23L1849 612.346L1832.59 599.121ZM1842.93 784.088C1846.03 810.403 1859.02 834.546 1879.27 851.594C1899.51 868.642 1925.48 877.313 1951.89 875.839C1978.3 874.364 2003.15 862.856 2021.38 843.66C2039.61 824.464 2049.84 799.024 2050 772.528C2050.04 748.694 2041.87 725.577 2026.88 707.072C2017.16 694.994 2004.87 685.256 1990.9 678.577C1976.93 671.898 1961.63 668.449 1946.15 668.484C1931.54 668.481 1917.09 671.568 1903.75 677.543C1890.41 683.518 1878.48 692.246 1868.74 703.158C1859 714.069 1851.66 726.917 1847.21 740.863C1842.77 754.809 1841.31 769.538 1842.93 784.088ZM1954.32 826.954C1952.16 829.125 1949.22 830.345 1946.15 830.345C1943.09 830.345 1940.15 829.125 1937.98 826.954C1935.82 824.784 1934.6 821.839 1934.6 818.77C1934.6 815.7 1935.82 812.756 1937.98 810.585L1964.45 784.088H1900C1896.94 784.088 1894 782.87 1891.84 780.702C1889.68 778.534 1888.46 775.594 1888.46 772.528C1888.46 769.462 1889.68 766.521 1891.84 764.353C1894 762.185 1896.94 760.967 1900 760.967H1964.45L1937.98 734.471C1935.82 732.3 1934.6 729.356 1934.6 726.286C1934.6 723.216 1935.82 720.272 1937.98 718.101C1940.15 715.93 1943.09 714.711 1946.15 714.711C1949.22 714.711 1952.16 715.93 1954.32 718.101L2000.48 764.343C2002.62 766.498 2003.83 769.414 2003.85 772.458V772.597C2003.83 775.611 2002.64 778.498 2000.52 780.643L2000.45 780.713L1954.3 826.954H1954.32Z" fill="white"/>
<defs>
<filter id="filter0_d_47_264" x="1573" y="375" width="654" height="645" filterUnits="userSpaceOnUse" color-interpolation-filters="sRGB">
<feFlood flood-opacity="0" result="BackgroundImageFix"/>
<feColorMatrix in="SourceAlpha" type="matrix" values="0 0 0 0 0 0 0 0 0 0 0 0 0 0 0 0 0 0 127 0" result="hardAlpha"/>
<feOffset dy="5"/>
<feGaussianBlur stdDeviation="7.5"/>
<feColorMatrix type="matrix" values="0 0 0 0 0 0 0 0 0 0 0 0 0 0 0 0 0 0 0.35 0"/>
<feBlend mode="normal" in2="BackgroundImageFix" result="effect1_dropShadow_47_264"/>
<feBlend mode="normal" in="SourceGraphic" in2="effect1_dropShadow_47_264" result="shape"/>
</filter>
<linearGradient id="paint0_linear_47_264" x1="0" y1="1101.5" x2="3840" y2="1101.5" gradientUnits="userSpaceOnUse">
<stop stop-color="#F78CA0"/>
<stop offset="0.19" stop-color="#F9748F"/>
<stop offset="0.6" stop-color="#FD868C"/>
<stop offset="1" stop-color="#FE9A8B"/>
</linearGradient>
</defs>
</svg>
