<svg width="3840" height="2203" viewBox="0 0 3840 2203" fill="none" xmlns="http://www.w3.org/2000/svg">
<rect width="3840" height="2203" fill="url(#paint0_linear_9_213)"/>
<path d="M1230.46 1134.83C1230.46 1138.98 1228.81 1142.95 1225.88 1145.88C1222.95 1148.81 1218.98 1150.46 1214.83 1150.46H1173.17C1169.02 1150.46 1165.05 1148.81 1162.12 1145.88C1159.19 1142.95 1157.54 1138.98 1157.54 1134.83C1157.54 1130.69 1159.19 1126.72 1162.12 1123.78C1165.05 1120.85 1169.02 1119.21 1173.17 1119.21H1214.83C1218.98 1119.21 1222.95 1120.85 1225.88 1123.78C1228.81 1126.72 1230.46 1130.69 1230.46 1134.83Z" fill="white"/>
<path opacity="0.4" d="M1277.33 1114V864C1277.33 834.833 1277.33 820.25 1271.67 809.104C1266.67 799.299 1258.7 791.328 1248.9 786.333C1237.75 780.667 1223.17 780.667 1194 780.667C1164.83 780.667 1150.25 780.667 1139.1 786.333C1129.3 791.328 1121.33 799.299 1116.33 809.104C1110.67 820.25 1110.67 834.833 1110.67 864V1114C1110.67 1143.17 1110.67 1157.75 1116.33 1168.9C1121.33 1178.69 1129.3 1186.66 1139.1 1191.65C1150.25 1197.33 1164.83 1197.33 1194 1197.33C1223.17 1197.33 1237.75 1197.33 1248.9 1191.65C1258.7 1186.66 1266.67 1178.69 1271.67 1168.9C1277.33 1157.75 1277.33 1143.17 1277.33 1114Z" fill="white"/>
<path opacity="0.7" d="M1277.33 910.729V1114C1277.33 1133.15 1277.33 1146 1275.73 1155.73L1344.46 1087L1466.08 960.125C1486.35 939.229 1496.5 928.771 1500.17 916.792C1503.3 906.578 1503.22 895.646 1499.94 885.479C1496.08 873.542 1485.67 863.125 1464.83 842.313C1446.08 823.854 1436.67 814.604 1425.67 810.771C1416.61 807.596 1406.86 806.983 1397.48 809C1386.08 811.458 1375.63 819.458 1354.71 835.458L1339.83 848.229L1277.33 910.729ZM1235.73 1195.73H1235.67V1195.79L1235.73 1195.73Z" fill="white"/>
<path d="M1398.46 1030.67H1441.92C1471.08 1030.67 1485.67 1030.67 1496.81 1036.35C1506.61 1041.34 1514.59 1049.31 1519.58 1059.1C1525.25 1070.25 1525.25 1084.83 1525.25 1114C1525.25 1143.17 1525.25 1157.75 1519.58 1168.9C1514.59 1178.69 1506.61 1186.66 1496.81 1191.65C1485.67 1197.33 1471.08 1197.33 1441.92 1197.33H1194C1213.1 1197.33 1225.96 1197.33 1235.67 1195.73V1195.79L1235.73 1195.73C1240.83 1194.9 1245.06 1193.6 1248.9 1191.67C1258.7 1186.67 1266.67 1178.7 1271.67 1168.9C1273.6 1165.06 1274.9 1160.83 1275.73 1155.73L1344.46 1087L1398.46 1030.67Z" fill="white"/>
<path d="M1135.13 1412.45C1135.13 1411.42 1135.38 1410.59 1135.9 1409.95C1136.47 1409.25 1137.34 1408.93 1138.49 1408.99H1139.83C1140.73 1400.1 1141.18 1390.21 1141.18 1379.33C1141.18 1370.56 1141.11 1363.62 1140.98 1358.5L1139.93 1358.78C1139.16 1358.91 1138.49 1358.75 1137.91 1358.3C1137.4 1357.86 1137.14 1357.15 1137.14 1356.19C1137.14 1355.17 1137.46 1354.34 1138.1 1353.7C1138.81 1352.99 1139.99 1352.29 1141.66 1351.58C1147.1 1349.28 1153.05 1348.13 1159.51 1348.13C1164.31 1348.13 1168.66 1348.86 1172.57 1350.34C1176.47 1351.81 1179.54 1353.95 1181.78 1356.77C1184.09 1359.52 1185.24 1362.82 1185.24 1366.66C1185.24 1370.62 1183.61 1374.02 1180.34 1376.83C1177.14 1379.65 1172.98 1381.41 1167.86 1382.11C1172.92 1382.94 1176.92 1384.9 1179.86 1387.97C1182.81 1390.98 1184.28 1394.37 1184.28 1398.14C1184.28 1402.18 1183.1 1405.6 1180.73 1408.42C1178.36 1411.17 1175.19 1413.22 1171.22 1414.56C1167.26 1415.84 1162.94 1416.38 1158.26 1416.19L1151.54 1415.9L1146.55 1415.81C1146.1 1417.41 1144.98 1418.21 1143.19 1418.21C1141.08 1418.21 1139.8 1417.31 1139.35 1415.52L1138.1 1415.42C1136.12 1415.3 1135.13 1414.3 1135.13 1412.45ZM1147.03 1409.38C1151.9 1409.5 1155.51 1409.57 1157.88 1409.57C1164.22 1409.57 1168.98 1408.67 1172.18 1406.88C1175.38 1405.09 1176.98 1402.18 1176.98 1398.14C1176.98 1393.66 1175.13 1390.5 1171.42 1388.64C1167.7 1386.72 1162.49 1385.6 1155.77 1385.28C1154.36 1385.22 1153.24 1384.99 1152.41 1384.61C1151.64 1384.16 1151.26 1383.26 1151.26 1381.92C1151.26 1380.58 1151.64 1379.68 1152.41 1379.23C1153.24 1378.78 1154.3 1378.53 1155.58 1378.46C1159.8 1378.21 1163.42 1377.82 1166.42 1377.31C1169.43 1376.8 1172.09 1375.71 1174.39 1374.05C1176.7 1372.38 1177.85 1369.92 1177.85 1366.66C1177.85 1362.69 1176.18 1359.68 1172.86 1357.63C1169.59 1355.58 1165.14 1354.56 1159.51 1354.56C1157.85 1354.56 1155.96 1354.69 1153.85 1354.94C1151.74 1355.2 1149.91 1355.55 1148.38 1356C1148.5 1361.95 1148.57 1369.7 1148.57 1379.23C1148.57 1389.34 1148.06 1399.39 1147.03 1409.38ZM1242.08 1409.76C1242.98 1409.89 1243.65 1410.14 1244.1 1410.53C1244.55 1410.91 1244.77 1411.62 1244.77 1412.64C1244.77 1413.6 1244.51 1414.37 1244 1414.94C1243.55 1415.52 1242.91 1415.81 1242.08 1415.81C1239.46 1415.81 1237.51 1415.39 1236.23 1414.56C1235.01 1413.73 1233.95 1412.16 1233.06 1409.86C1230.18 1414.53 1225.06 1416.86 1217.7 1416.86C1212.51 1416.86 1208.32 1415.71 1205.12 1413.41C1201.92 1411.1 1199.62 1408.19 1198.21 1404.67C1196.87 1401.09 1196.19 1397.31 1196.19 1393.34C1196.19 1389.06 1197.06 1385.02 1198.79 1381.25C1200.51 1377.47 1203.04 1374.43 1206.37 1372.13C1209.76 1369.82 1213.79 1368.67 1218.47 1368.67C1221.67 1368.67 1224.45 1369.31 1226.82 1370.59C1229.19 1371.87 1231.04 1373.66 1232.39 1375.97L1232.77 1372.8C1232.9 1370.43 1233.99 1369.25 1236.03 1369.25C1237.31 1369.25 1238.27 1369.57 1238.91 1370.21C1239.62 1370.78 1239.91 1371.49 1239.78 1372.32L1239.49 1374.72C1239.04 1377.41 1238.72 1380.19 1238.53 1383.07C1238.34 1385.5 1238.24 1388.77 1238.24 1392.86V1399.49C1238.24 1402.24 1238.31 1404.29 1238.43 1405.63C1238.63 1406.91 1238.98 1407.9 1239.49 1408.61C1240 1409.31 1240.87 1409.7 1242.08 1409.76ZM1230.95 1399.39C1231.01 1396.38 1231.04 1392.51 1231.04 1387.78C1231.04 1384.64 1230.37 1382.11 1229.03 1380.19C1227.68 1378.21 1226.05 1376.8 1224.13 1375.97C1222.21 1375.14 1220.39 1374.72 1218.66 1374.72C1215.27 1374.72 1212.42 1375.68 1210.11 1377.6C1207.87 1379.52 1206.21 1381.92 1205.12 1384.8C1204.1 1387.68 1203.59 1390.53 1203.59 1393.34C1203.59 1397.82 1204.67 1401.86 1206.85 1405.44C1209.09 1408.96 1212.74 1410.72 1217.79 1410.72C1221.57 1410.72 1224.67 1409.76 1227.11 1407.84C1229.6 1405.86 1230.88 1403.04 1230.95 1399.39ZM1273.96 1416.48C1269.61 1416.48 1265.89 1415.42 1262.82 1413.31C1259.75 1411.14 1257.35 1408.38 1255.62 1405.06C1255.17 1404.16 1254.95 1403.55 1254.95 1403.23C1254.95 1402.34 1255.33 1401.57 1256.1 1400.93C1256.93 1400.22 1257.83 1399.87 1258.79 1399.87C1259.43 1399.87 1259.91 1400.06 1260.23 1400.45C1260.61 1400.77 1261.13 1401.38 1261.77 1402.27C1263.37 1404.7 1265.06 1406.66 1266.85 1408.13C1268.65 1409.54 1271.01 1410.24 1273.96 1410.24C1276.71 1410.24 1278.98 1409.57 1280.77 1408.22C1282.63 1406.88 1283.56 1405.18 1283.56 1403.14C1283.56 1401.66 1283.05 1400.42 1282.02 1399.39C1281.06 1398.37 1279.85 1397.54 1278.37 1396.9C1276.97 1396.26 1274.92 1395.46 1272.23 1394.5C1268.84 1393.28 1266.09 1392.19 1263.97 1391.23C1261.93 1390.21 1260.17 1388.8 1258.69 1387.01C1257.22 1385.15 1256.49 1382.82 1256.49 1380C1256.49 1377.5 1257.16 1375.2 1258.5 1373.09C1259.91 1370.91 1261.89 1369.18 1264.45 1367.9C1267.01 1366.62 1269.96 1365.98 1273.29 1365.98C1276.61 1365.98 1279.56 1366.62 1282.12 1367.9C1284.68 1369.18 1286.66 1370.88 1288.07 1372.99C1289.48 1375.1 1290.18 1377.44 1290.18 1380C1290.18 1381.28 1289.93 1382.21 1289.41 1382.78C1288.97 1383.36 1288.13 1383.65 1286.92 1383.65C1285.64 1383.65 1284.77 1383.42 1284.33 1382.98C1283.94 1382.46 1283.72 1381.82 1283.65 1381.06C1283.4 1378.05 1282.34 1375.84 1280.49 1374.43C1278.63 1372.96 1276.23 1372.22 1273.29 1372.22C1269.83 1372.22 1267.37 1373.06 1265.89 1374.72C1264.49 1376.32 1263.78 1378.05 1263.78 1379.9C1263.78 1382.08 1264.71 1383.78 1266.57 1384.99C1268.49 1386.14 1271.43 1387.42 1275.4 1388.83C1278.79 1390.05 1281.51 1391.17 1283.56 1392.19C1285.61 1393.22 1287.33 1394.62 1288.74 1396.42C1290.21 1398.21 1290.95 1400.45 1290.95 1403.14C1290.95 1407.3 1289.32 1410.56 1286.05 1412.93C1282.79 1415.3 1278.76 1416.48 1273.96 1416.48ZM1327.85 1416.38C1322.6 1416.38 1318.05 1415.26 1314.21 1413.02C1310.44 1410.72 1307.56 1407.71 1305.57 1404C1303.65 1400.22 1302.69 1396.13 1302.69 1391.71C1302.69 1387.17 1303.72 1383.01 1305.77 1379.23C1307.81 1375.39 1310.73 1372.35 1314.5 1370.11C1318.28 1367.87 1322.63 1366.75 1327.56 1366.75C1331.91 1366.75 1335.81 1367.65 1339.27 1369.44C1342.73 1371.17 1345.41 1373.6 1347.33 1376.74C1349.25 1379.87 1350.21 1383.46 1350.21 1387.49C1350.21 1389.41 1349.99 1390.78 1349.54 1391.62C1349.09 1392.38 1347.97 1392.8 1346.18 1392.86L1309.61 1393.63C1309.61 1396.06 1310.34 1398.56 1311.81 1401.12C1313.29 1403.68 1315.37 1405.82 1318.05 1407.55C1320.81 1409.28 1323.97 1410.14 1327.56 1410.14C1330.25 1410.14 1332.55 1409.76 1334.47 1408.99C1336.39 1408.16 1337.89 1407.23 1338.98 1406.21C1340.07 1405.18 1341.38 1403.74 1342.92 1401.89C1343.37 1401.31 1344.07 1401.02 1345.03 1401.02C1345.86 1401.02 1346.63 1401.34 1347.33 1401.98C1348.1 1402.62 1348.49 1403.36 1348.49 1404.19C1348.49 1404.83 1348.23 1405.5 1347.72 1406.21C1345.67 1409.02 1343.17 1411.42 1340.23 1413.41C1337.35 1415.39 1333.22 1416.38 1327.85 1416.38ZM1343.01 1387.01C1343.65 1387.01 1343.97 1386.56 1343.97 1385.66C1343.97 1381.82 1342.44 1378.72 1339.37 1376.35C1336.29 1373.92 1332.42 1372.7 1327.75 1372.7C1324.23 1372.7 1321.09 1373.6 1318.34 1375.39C1315.59 1377.18 1313.45 1379.3 1311.91 1381.73C1310.37 1384.16 1309.61 1386.21 1309.61 1387.87L1343.01 1387.01ZM1408.69 1389.22C1409.59 1389.09 1410.32 1389.31 1410.9 1389.89C1411.54 1390.46 1411.86 1391.3 1411.86 1392.38C1411.86 1393.28 1411.63 1394.02 1411.19 1394.59C1410.8 1395.1 1410.07 1395.42 1408.98 1395.55C1405.59 1395.94 1402.19 1396.22 1398.8 1396.42L1398.13 1413.02C1398.13 1413.98 1397.81 1414.78 1397.17 1415.42C1396.53 1416 1395.63 1416.29 1394.48 1416.29C1393.27 1416.29 1392.37 1415.97 1391.79 1415.33C1391.22 1414.69 1390.96 1413.82 1391.03 1412.74L1391.7 1396.7C1388.88 1396.77 1384.34 1396.8 1378.07 1396.8C1371.09 1396.8 1365.43 1396.26 1361.07 1395.17C1359.28 1394.72 1358.39 1393.7 1358.39 1392.1C1358.39 1391.26 1358.61 1390.43 1359.06 1389.6C1363.35 1381.22 1367.47 1373.92 1371.44 1367.71C1375.47 1361.5 1380.08 1355.81 1385.27 1350.62C1385.84 1350.05 1386.61 1349.76 1387.57 1349.76C1388.53 1349.76 1389.33 1350.08 1389.97 1350.72C1390.61 1351.3 1390.93 1352 1390.93 1352.83C1390.93 1353.79 1390.32 1354.91 1389.11 1356.19C1384.18 1361.31 1379.79 1366.72 1375.95 1372.42C1372.11 1378.11 1369.17 1383.49 1367.12 1388.54C1366.99 1388.93 1366.93 1389.18 1366.93 1389.31C1366.93 1389.63 1367.35 1389.89 1368.18 1390.08C1371.31 1390.53 1375.79 1390.75 1381.62 1390.75C1384.05 1390.75 1387.51 1390.69 1391.99 1390.56L1392.85 1368.86C1392.85 1366.75 1393.97 1365.7 1396.21 1365.7C1397.49 1365.7 1398.45 1366.05 1399.09 1366.75C1399.73 1367.39 1400.02 1368.29 1399.95 1369.44L1399.09 1390.18C1403.31 1389.79 1406.51 1389.47 1408.69 1389.22ZM1442.47 1376.74C1447.34 1376.74 1451.47 1377.73 1454.86 1379.71C1458.31 1381.63 1460.87 1384.16 1462.54 1387.3C1464.27 1390.43 1465.13 1393.82 1465.13 1397.47C1465.13 1403.1 1463.05 1407.58 1458.89 1410.91C1454.73 1414.18 1449.16 1415.81 1442.19 1415.81C1433.87 1415.81 1427.56 1413.38 1423.27 1408.51C1419.05 1403.58 1416.94 1396.29 1416.94 1386.62C1416.94 1379.52 1418.03 1373.28 1420.2 1367.9C1422.38 1362.46 1425.51 1358.27 1429.61 1355.33C1433.71 1352.32 1438.54 1350.82 1444.11 1350.82C1448.84 1350.82 1452.78 1352 1455.91 1354.37C1459.05 1356.74 1461.74 1360 1463.98 1364.16C1464.43 1365.06 1464.65 1365.76 1464.65 1366.27C1464.65 1367.17 1464.27 1367.94 1463.5 1368.58C1462.73 1369.15 1461.93 1369.44 1461.1 1369.44C1460.39 1369.44 1459.82 1369.28 1459.37 1368.96C1458.99 1368.58 1458.44 1367.9 1457.74 1366.94C1456.46 1364.77 1455.27 1363.04 1454.19 1361.76C1453.16 1360.42 1451.75 1359.26 1449.96 1358.3C1448.17 1357.34 1445.99 1356.86 1443.43 1356.86C1437.35 1356.86 1432.59 1359.42 1429.13 1364.54C1425.67 1369.66 1423.85 1376.83 1423.66 1386.05C1425.39 1383.23 1427.98 1380.99 1431.43 1379.33C1434.95 1377.6 1438.63 1376.74 1442.47 1376.74ZM1442.57 1409.76C1447.69 1409.76 1451.5 1408.58 1453.99 1406.21C1456.49 1403.84 1457.74 1400.9 1457.74 1397.38C1457.74 1395.01 1457.19 1392.7 1456.11 1390.46C1455.08 1388.22 1453.45 1386.4 1451.21 1384.99C1448.97 1383.52 1446.15 1382.78 1442.76 1382.78C1438.35 1382.78 1434.51 1383.87 1431.24 1386.05C1428.04 1388.22 1426.44 1391.55 1426.44 1396.03C1426.44 1400.19 1427.82 1403.52 1430.57 1406.02C1433.32 1408.51 1437.32 1409.76 1442.57 1409.76Z" fill="white"/>
<path d="M2523.64 1399.1C2523.64 1401.73 2523.67 1403.78 2523.74 1405.25C2523.86 1416.13 2523.93 1426.72 2523.93 1437.02C2523.93 1439.14 2522.71 1440.19 2520.28 1440.19C2519 1440.19 2518.04 1439.9 2517.4 1439.33C2516.82 1438.69 2516.54 1437.7 2516.54 1436.35V1428.86C2514.74 1432.06 2512.06 1434.69 2508.47 1436.74C2504.89 1438.78 2500.86 1439.81 2496.38 1439.81C2488.7 1439.81 2483.03 1437.44 2479.38 1432.7C2475.74 1427.97 2473.91 1422.05 2473.91 1414.94C2473.91 1411.49 2473.94 1407.78 2474.01 1403.81C2474.07 1399.84 2474.14 1396.8 2474.2 1394.69C2474.33 1390.4 2474.46 1384.1 2474.58 1375.78C2474.58 1373.66 2475.77 1372.61 2478.14 1372.61C2479.35 1372.61 2480.28 1372.9 2480.92 1373.47C2481.56 1374.05 2481.88 1374.85 2481.88 1375.87C2481.88 1377.79 2481.78 1384.51 2481.59 1396.03C2481.46 1404.22 2481.4 1410.5 2481.4 1414.85C2481.4 1420.8 2482.78 1425.31 2485.53 1428.38C2488.34 1431.46 2492.38 1432.99 2497.62 1432.99C2500.95 1432.99 2504.06 1431.97 2506.94 1429.92C2509.82 1427.87 2512.09 1425.28 2513.75 1422.14C2515.48 1419.01 2516.34 1415.94 2516.34 1412.93C2516.34 1404.99 2516.25 1392.48 2516.06 1375.39C2516.06 1373.15 2517.21 1372.03 2519.51 1372.03C2520.73 1372.03 2521.66 1372.35 2522.3 1372.99C2523 1373.63 2523.35 1374.5 2523.35 1375.58C2523.35 1382.5 2523.45 1390.34 2523.64 1399.1ZM2566.74 1432.8C2568.92 1432.8 2570.01 1433.92 2570.01 1436.16C2570.01 1438.46 2568.89 1439.62 2566.65 1439.62L2537.56 1439.23C2535.58 1439.17 2534.58 1438.02 2534.58 1435.78C2534.58 1434.62 2534.87 1433.79 2535.45 1433.28C2536.09 1432.7 2536.86 1432.42 2537.75 1432.42L2548.7 1432.61C2549.85 1414.18 2550.42 1396.26 2550.42 1378.85C2547.54 1378.91 2543.8 1379.1 2539.19 1379.42L2536.6 1379.62C2535.96 1379.62 2535.38 1379.3 2534.87 1378.66C2534.36 1378.02 2534.1 1377.18 2534.1 1376.16C2534.1 1374.3 2535.13 1373.18 2537.18 1372.8C2538.33 1372.61 2540.79 1372.42 2544.57 1372.22C2548.34 1372.03 2552.02 1371.94 2555.61 1371.94C2560.98 1371.94 2564.79 1372.13 2567.03 1372.51C2567.99 1372.7 2568.73 1373.02 2569.24 1373.47C2569.75 1373.86 2570.01 1374.62 2570.01 1375.78C2570.01 1376.86 2569.69 1377.73 2569.05 1378.37C2568.47 1378.94 2567.67 1379.2 2566.65 1379.14C2564.15 1378.94 2561.21 1378.82 2557.82 1378.75C2557.82 1389.12 2557.69 1398.5 2557.43 1406.88C2557.18 1415.2 2556.7 1423.81 2555.99 1432.7L2566.74 1432.8Z" fill="white"/>
<path d="M1976 1061.4C1980.2 1061.4 1983 1062.2 1984.4 1063.8C1985.8 1065.2 1986.5 1067.5 1986.5 1070.7C1986.5 1076.5 1982.9 1079.4 1975.7 1079.4L1928.3 1078.8V1124.7C1928.3 1127.9 1927.6 1130.4 1926.2 1132.2C1925 1134 1922.7 1134.9 1919.3 1134.9C1915.7 1134.9 1913.3 1134.1 1912.1 1132.5C1910.9 1130.7 1910.3 1127.9 1910.3 1124.1V1078.8C1899.9 1078.6 1883.5 1078.5 1861.1 1078.5C1854.9 1078.5 1851.8 1075.5 1851.8 1069.5C1851.8 1063.5 1855 1060.5 1861.4 1060.5L1910 1060.8V1017.3C1910 1011.3 1913.1 1008.3 1919.3 1008.3C1922.7 1008.3 1925 1009.1 1926.2 1010.7C1927.6 1012.1 1928.3 1014.3 1928.3 1017.3V1061.1L1976 1061.4Z" fill="white"/>
<path d="M2437.46 1218.54C2474.04 1237.75 2492.33 1247.33 2512 1247.33V1039L2316.96 936.354L2316.13 937.75C2303.67 958.875 2303.67 985.187 2303.67 1037.79V1040.23C2303.67 1092.81 2303.67 1119.12 2316.1 1140.25C2328.56 1161.4 2350.98 1173.17 2395.79 1196.69L2437.46 1218.54Z" fill="white"/>
<path opacity="0.7" d="M2628.19 881.333L2586.52 859.458C2549.96 840.271 2531.67 830.667 2512 830.667C2492.31 830.667 2474.04 840.25 2437.46 859.458L2395.79 881.333C2351.96 904.333 2329.54 916.083 2316.96 936.333L2512 1039L2707.04 936.354C2694.42 916.083 2672.04 904.333 2628.19 881.333Z" fill="white"/>
<path opacity="0.5" d="M2707.9 937.75L2707.04 936.354L2512 1039V1247.33C2531.67 1247.33 2549.96 1237.75 2586.54 1218.54L2628.21 1196.67C2673.02 1173.15 2695.44 1161.4 2707.9 1140.25C2720.33 1119.12 2720.33 1092.81 2720.33 1040.25V1037.81C2720.33 985.208 2720.33 958.875 2707.9 937.75Z" fill="white"/>
<defs>
<linearGradient id="paint0_linear_9_213" x1="0" y1="0" x2="1901.78" y2="3314.95" gradientUnits="userSpaceOnUse">
<stop stop-color="#667EEA"/>
<stop offset="1" stop-color="#764BA2"/>
</linearGradient>
</defs>
</svg>
